<svg viewBox="0 0 100 100" xmlns="http://www.w3.org/2000/svg">
  <!-- Dragon Ball -->
  <circle cx="50" cy="50" r="45" fill="none" stroke="black" stroke-width="6"/>
  <!-- 4 Stars -->
  <polygon points="50,25 53,35 63,35 55,41 58,51 50,45 42,51 45,41 37,35 47,35" fill="black"/>
  <polygon points="50,65 52,70 57,70 53,73 54,78 50,75 46,78 47,73 43,70 48,70" fill="black"/>
  <polygon points="25,45 27,50 32,50 28,53 29,58 25,55 21,58 22,53 18,50 23,50" fill="black"/>
  <polygon points="75,45 77,50 82,50 78,53 79,58 75,55 71,58 72,53 68,50 73,50" fill="black"/>
</svg>
